<svg id="Capa_1" enable-background="new 0 0 512 512" height="512" viewBox="0 0 512 512" width="512" xmlns="http://www.w3.org/2000/svg"><g><path d="m411.337 78.371c29.931 29.931 66.234 28.072 66.234 14.382s-20.788-7.87-26.609-13.691 14.212-9.233 10.446-17.676c-3.765-8.444-24.284 2.226-30.398-3.888-6.115-6.115 4.555-26.633-3.888-30.399-8.444-3.765-11.855 16.267-17.676 10.446s0-26.609-13.691-26.609-15.549 36.303 14.382 66.234" fill="#b3e59f"/><path d="m410.46 77.493-.323-.323c-29.932-29.932-28.073-66.237-14.384-66.234 13.692 0 7.869 20.788 13.692 26.611.575.575 1.125.897 1.659 1.014-7.112 9.571-11.365 28.211-.644 38.932z" fill="#95d6a4"/><path d="m412.271 76.233c-28.04-28.04-51.222-50.322-79.262-22.282-6.004 6.004-11.743 13.825-16.78 22.691-10.137 17.832-17.438 39.88-18.33 59.79-.126 2.751-.126 5.461 0 8.115.647 13.178 4.535 24.936 12.829 33.23 12.297 12.297 32.226 14.914 53.095 11.617 26.724-4.223 54.987-18.152 70.731-33.895 28.04-28.041 5.761-51.226-22.283-79.266z" fill="#dd636e"/><path d="m310.726 177.776c-28.042-28.042-5.76-95.781 22.282-123.823s51.221-5.764 79.263 22.278c-13.132-13.132-24.228-23.327-52.27 4.715s-62.407 83.698-49.275 96.83z" fill="#da4a54"/><g fill="#664545"><path d="m349.087 92.485c-1.977 0-3.955-.755-5.463-2.263-3.018-3.017-3.018-7.909 0-10.927l7.363-7.363c3.017-3.017 7.909-3.017 10.927 0s3.018 7.909 0 10.927l-7.363 7.363c-1.509 1.508-3.487 2.263-5.464 2.263z"/><path d="m376.418 119.815c-1.977 0-3.955-.755-5.463-2.263-3.018-3.017-3.018-7.909 0-10.927l7.363-7.363c3.017-3.017 7.909-3.017 10.927 0s3.018 7.909 0 10.927l-7.363 7.363c-1.51 1.509-3.487 2.263-5.464 2.263z"/><path d="m403.748 147.146c-1.977 0-3.955-.755-5.463-2.263-3.018-3.017-3.018-7.909 0-10.927l7.363-7.363c3.017-3.017 7.909-3.017 10.927 0s3.018 7.909 0 10.927l-7.363 7.363c-1.509 1.508-3.487 2.263-5.464 2.263z"/></g><g fill="#664545"><path d="m331.231 137.671c-1.977 0-3.955-.755-5.463-2.263-3.018-3.017-3.018-7.909 0-10.927l7.363-7.363c3.017-3.017 7.909-3.017 10.927 0s3.018 7.909 0 10.927l-7.363 7.363c-1.509 1.508-3.486 2.263-5.464 2.263z"/><path d="m358.562 165.001c-1.977 0-3.955-.755-5.463-2.263-3.018-3.017-3.018-7.909 0-10.927l7.363-7.363c3.017-3.017 7.909-3.017 10.927 0s3.018 7.909 0 10.927l-7.363 7.363c-1.509 1.509-3.487 2.263-5.464 2.263z"/></g><path d="m183.185 78.371c29.931 29.931 66.234 28.072 66.234 14.382s-20.788-7.87-26.609-13.691 14.212-9.233 10.446-17.676c-3.765-8.444-24.284 2.226-30.399-3.888s4.555-26.633-3.888-30.399-11.855 16.267-17.676 10.446 0-26.609-13.691-26.609-15.549 36.303 14.382 66.234" fill="#b3e59f"/><path d="m182.308 77.493-.323-.323c-29.932-29.932-28.073-66.237-14.384-66.234 13.692 0 7.869 20.788 13.692 26.611.575.575 1.125.897 1.659 1.014-7.112 9.571-11.365 28.211-.644 38.932z" fill="#95d6a4"/><path d="m184.119 76.233c-28.04-28.04-51.222-50.322-79.262-22.282-6.004 6.004-11.743 13.825-16.78 22.691-10.137 17.832-17.438 39.88-18.33 59.79-.126 2.751-.126 5.461 0 8.115.647 13.178 4.535 24.936 12.829 33.23 12.297 12.297 32.226 14.914 53.095 11.617 26.724-4.223 54.987-18.152 70.731-33.895 28.04-28.041 5.761-51.226-22.283-79.266z" fill="#dd636e"/><path d="m82.574 177.776c-28.042-28.042-5.76-95.781 22.282-123.823s51.221-5.764 79.263 22.278c-13.132-13.132-24.228-23.327-52.27 4.715s-62.407 83.698-49.275 96.83z" fill="#da4a54"/><g fill="#664545"><path d="m120.935 92.485c-1.977 0-3.955-.755-5.464-2.263-3.017-3.018-3.017-7.909.001-10.927l7.364-7.363c3.018-3.017 7.909-3.016 10.927.001 3.017 3.018 3.017 7.909-.001 10.927l-7.364 7.363c-1.509 1.507-3.487 2.262-5.463 2.262z"/><path d="m148.266 119.815c-1.977 0-3.955-.755-5.463-2.263-3.018-3.017-3.018-7.909 0-10.927l7.363-7.363c3.017-3.017 7.909-3.017 10.927 0s3.018 7.909 0 10.927l-7.363 7.363c-1.51 1.509-3.487 2.263-5.464 2.263z"/><path d="m175.596 147.146c-1.977 0-3.955-.755-5.463-2.263-3.018-3.017-3.018-7.909 0-10.927l7.363-7.363c3.017-3.017 7.909-3.017 10.927 0s3.018 7.909 0 10.927l-7.363 7.363c-1.509 1.508-3.487 2.263-5.464 2.263z"/></g><g fill="#664545"><path d="m103.079 137.671c-1.977 0-3.955-.755-5.463-2.263-3.018-3.017-3.018-7.909 0-10.927l7.363-7.363c3.017-3.017 7.909-3.017 10.927 0s3.018 7.909 0 10.927l-7.363 7.363c-1.509 1.508-3.486 2.263-5.464 2.263z"/><path d="m130.41 165.001c-1.977 0-3.955-.755-5.463-2.263-3.018-3.017-3.018-7.909 0-10.927l7.363-7.363c3.017-3.017 7.909-3.017 10.927 0s3.018 7.909 0 10.927l-7.363 7.363c-1.509 1.509-3.487 2.263-5.464 2.263z"/></g><path d="m474.257 493.069c-130.667 9.375-261.334 10.508-392.011 3.388-17.969-.962-35.927-2.095-53.896-3.388-14.11-83.698-16.045-167.406-5.804-251.115 1.625-13.276 3.56-26.563 5.804-39.85 148.636-10.668 297.271-10.668 445.907 0 16.355 96.985 16.355 193.98 0 290.965z" fill="#f9efda"/><path d="m82.246 496.457c-17.969-.962-35.927-2.095-53.896-3.388-14.11-83.698-16.045-167.406-5.804-251.115l49.673 31.705s-13.682 148.08 10.027 222.798z" fill="#f6e4c1"/><path d="m481.9 436.885c-1.935 18.728-4.49 37.456-7.643 56.183-130.667 9.375-261.334 10.508-392.011 3.388-17.969-.962-35.927-2.095-53.896-3.388-3.153-18.728-5.708-37.456-7.643-56.183 16.964 1.176 33.928 2.212 50.892 3.121 136.76 7.376 273.53 6.329 410.301-3.121z" fill="#e7a561"/><path d="m82.246 496.457c-17.969-.962-35.927-2.095-53.896-3.388-3.153-18.728-5.708-37.456-7.643-56.183 16.964 1.176 33.928 2.212 50.892 3.121 2.149 20.748 5.527 40.309 10.647 56.45z" fill="#e49542"/><g fill="#f6e4c1"><path d="m446.149 414.564c-1.908 0-3.819-.702-5.313-2.119-3.097-2.936-3.228-7.825-.293-10.923l.393-.414c2.935-3.098 7.826-3.229 10.923-.293s3.228 7.825.293 10.923l-.393.414c-1.52 1.604-3.563 2.412-5.61 2.412z"/><path d="m453.283 388.619c-1.908 0-3.819-.702-5.313-2.119-3.097-2.936-3.228-7.825-.293-10.923l.393-.414c2.935-3.098 7.826-3.229 10.923-.293s3.228 7.825.293 10.923l-.393.414c-1.52 1.604-3.563 2.412-5.61 2.412z"/><path d="m426.564 396.002c-1.908 0-3.819-.702-5.313-2.119-3.097-2.936-3.228-7.825-.293-10.923l.393-.414c2.935-3.097 7.825-3.229 10.923-.293 3.097 2.936 3.228 7.825.293 10.923l-.393.414c-1.52 1.604-3.563 2.412-5.61 2.412z"/></g><g fill="#f6e4c1"><path d="m100.466 375.519c-1.908 0-3.819-.702-5.313-2.119-3.097-2.936-3.228-7.825-.293-10.923l.393-.414c2.935-3.098 7.826-3.229 10.923-.293s3.228 7.825.293 10.923l-.393.414c-1.52 1.603-3.563 2.412-5.61 2.412z"/><path d="m107.601 349.574c-1.908 0-3.819-.702-5.313-2.119-3.097-2.936-3.228-7.825-.293-10.923l.393-.414c2.935-3.098 7.826-3.229 10.923-.293s3.228 7.825.293 10.923l-.393.414c-1.52 1.604-3.564 2.412-5.61 2.412z"/><path d="m80.881 356.957c-1.908 0-3.819-.702-5.313-2.119-3.097-2.936-3.228-7.825-.293-10.923l.393-.414c2.935-3.097 7.826-3.229 10.923-.293s3.228 7.825.293 10.923l-.393.414c-1.52 1.604-3.563 2.412-5.61 2.412z"/></g><path d="m512 241.352v-18.679c0-24.632-19.968-44.6-44.6-44.6h-422.8c-24.632 0-44.6 19.968-44.6 44.6v18.679c0 38.651 8.98 71.877 54.57 71.877s53.697-54.078 89.789-54.078 42.018 61.538 111.641 61.538 75.549-61.537 111.641-61.537 44.199 54.078 89.789 54.078 54.57-33.227 54.57-71.878z" fill="#df73c1"/><path d="m62.034 222.669v18.685c0 19.326 2.245 37.285 10.187 50.433 2.94 4.874 6.67 9.076 11.363 12.443-7.91 5.376-17.199 9-29.011 9-22.8 0-36.44-8.306-44.382-21.443-7.942-13.148-10.187-31.107-10.187-50.433v-18.685c0-24.628 19.968-44.596 44.596-44.596h62.03c-24.628 0-44.596 19.968-44.596 44.596z" fill="#dd4fb1"/></g></svg>