<svg width="323" height="323" viewBox="0 0 323 323" fill="none" xmlns="http://www.w3.org/2000/svg">
<g clip-path="url(#clip0)">
<path d="M309.704 164.148C309.753 223.214 174.741 271.21 115.607 271.259C56.4726 271.308 8.49491 223.466 8.44549 164.399C8.39607 105.333 56.294 57.4108 115.428 57.3615C174.562 57.3121 309.655 105.082 309.704 164.148Z" fill="#FEC2B0"/>
<path d="M88.1178 128.958H73.6131V199.987H88.1178V128.958Z" fill="#0B3C5D"/>
<path d="M152.045 128.789H166.729V199.818H152.045V128.789Z" fill="#FF3661"/>
<path d="M88.1666 128.958L77.7318 138.45L119.914 179.615L130.349 170.123L88.1666 128.958Z" fill="#0B3C5D"/>
<path d="M152.168 128.81L162.608 138.307L120.404 179.493L109.964 169.996L152.168 128.81Z" fill="#FF3661"/>
<path d="M166.729 219.052C182.116 219.052 196.874 213.292 207.754 203.041C218.634 192.79 224.747 178.886 224.747 164.388C224.747 149.891 218.634 135.987 207.754 125.735C196.874 115.484 182.116 109.725 166.729 109.725V123.664C178.193 123.664 189.187 127.955 197.293 135.592C205.399 143.229 209.953 153.588 209.953 164.388C209.953 175.189 205.399 185.547 197.293 193.185C189.187 200.822 178.193 205.112 166.729 205.112V219.052Z" fill="#0B3C5D"/>
</g>
<defs>
<clipPath id="clip0">
<rect width="323" height="323" fill="white"/>
</clipPath>
</defs>
</svg>
