<svg id="Capa_1" enable-background="new 0 0 512 512" height="512" viewBox="0 0 512 512" width="512" xmlns="http://www.w3.org/2000/svg"><g><g><path d="m353 504h-194c-16.568 0-30-13.431-30-30v-436c0-16.569 13.432-30 30-30h194c16.568 0 30 13.431 30 30v436c0 16.569-13.432 30-30 30z" fill="#434d59"/><path d="m353 486h-194c-16.568 0-30-13.431-30-30v18c0 16.569 13.432 30 30 30h194c16.568 0 30-13.431 30-30v-18c0 16.569-13.432 30-30 30z" fill="#3b434d"/><path d="m351.926 483.743h-191.852c-5.527 0-10.008-4.481-10.008-10.008v-435.47c0-5.527 4.481-10.008 10.008-10.008h191.852c5.527 0 10.008 4.481 10.008 10.008v435.47c0 5.527-4.481 10.008-10.008 10.008z" fill="#bed8fb"/><path d="m351.926 465.743h-191.852c-5.527 0-10.008-4.481-10.008-10.008v18c0 5.527 4.481 10.008 10.008 10.008h191.852c5.527 0 10.008-4.481 10.008-10.008v-18c0 5.527-4.481 10.008-10.008 10.008z" fill="#a3caf7"/><path d="m295.713 38.821h-79.425c-8.886 0-16.707-5.864-19.198-14.394l-4.798-16.427h127.415l-4.797 16.427c-2.49 8.53-10.311 14.394-19.197 14.394z" fill="#434d59"/><path d="m224.427 235.563c22.6 22.6 41.307 25.825 58.097 26.75 17.744.978 29.154-5.35 35.607-10.835 4.069-3.459 3.981-9.773-.139-13.17l-16.493-13.6c-3.668-3.024-9.093-2.504-12.119 1.163l-5.361 6.497s-16.624 3.079-37.77-18.066c-21.145-21.145-18.066-37.77-18.066-37.77l6.497-5.361c3.667-3.026 4.187-8.451 1.163-12.119l-13.6-16.493c-3.398-4.12-9.711-4.208-13.17-.139-5.485 6.453-11.813 17.863-10.835 35.607.925 16.79 4.15 35.497 26.75 58.097" fill="#434d59"/><g fill="#3b434d"><path d="m317.992 238.307-2.961-2.442c-6.77 4.761-17.308 9.284-32.507 8.447-16.719-.921-35.341-4.13-57.814-26.473.094.095-.095-.094 0 0-19.626-19.74-24.488-36.508-26.004-51.625-.507 3.58-.706 7.505-.469 11.811.921 16.719 4.13 35.341 26.473 57.814 22.473 22.344 41.095 25.552 57.814 26.473 17.744.978 29.154-5.35 35.607-10.835 4.069-3.458 3.981-9.772-.139-13.17z"/><path d=""/></g><ellipse cx="206.249" cy="344.98" fill="#df667c" rx="25.277" ry="25.277" transform="matrix(.973 -.23 .23 .973 -73.743 56.615)"/><path d="m206.249 352.257c-10.789 0-19.994-6.762-23.622-16.277-1.066 2.797-1.656 5.829-1.656 9 0 13.96 11.317 25.277 25.277 25.277s25.277-11.317 25.277-25.277c0-3.171-.589-6.203-1.656-9-3.626 9.515-12.831 16.277-23.62 16.277z" fill="#db4858"/><ellipse cx="313.02" cy="344.98" fill="#b3e59f" rx="25.277" ry="25.277" transform="matrix(.973 -.23 .23 .973 -70.887 81.146)"/><path d="m313.02 352.257c-10.789 0-19.994-6.762-23.622-16.277-1.066 2.797-1.655 5.829-1.655 9 0 13.96 11.317 25.277 25.277 25.277s25.277-11.317 25.277-25.277c0-3.171-.589-6.203-1.656-9-3.627 9.515-12.832 16.277-23.621 16.277z" fill="#95d6a4"/></g><g><g><path d="m353.19 0h-194.38c-20.718 0-37.573 16.855-37.573 37.573v91.295c0 4.15 3.365 7.515 7.515 7.515s7.515-3.365 7.515-7.515v-91.295c0-12.431 10.113-22.544 22.544-22.544h27.723l3.227 11.051c3.41 11.676 14.286 19.83 26.449 19.83h79.581c12.163 0 23.039-8.155 26.449-19.831l3.227-11.05h27.724c12.431 0 22.544 10.113 22.544 22.544v320.764c0 4.15 3.364 7.515 7.515 7.515s7.515-3.365 7.515-7.515v-320.764c-.002-20.718-16.857-37.573-37.575-37.573zm-45.377 21.867c-1.55 5.307-6.494 9.014-12.023 9.014h-79.581c-5.529 0-10.473-3.707-12.022-9.014l-1.997-6.838h107.62z"/><path d="m383.249 380.882c-4.15 0-7.515 3.365-7.515 7.515v86.03c0 12.431-10.113 22.544-22.544 22.544h-194.38c-12.431 0-22.544-10.113-22.544-22.544v-315.5c0-4.15-3.364-7.515-7.515-7.515-4.15 0-7.515 3.365-7.515 7.515v315.5c0 20.718 16.855 37.573 37.573 37.573h194.38c20.718 0 37.573-16.855 37.573-37.573v-86.03c.001-4.151-3.363-7.515-7.513-7.515z"/><path d="m298.021 472.355c4.15 0 7.515-3.365 7.515-7.515s-3.365-7.515-7.515-7.515h-84.042c-4.15 0-7.515 3.365-7.515 7.515s3.365 7.515 7.515 7.515z"/><path d="m206.249 377.757c-18.074 0-32.777-14.704-32.777-32.777 0-18.074 14.704-32.777 32.777-32.777 18.074 0 32.777 14.704 32.777 32.777 0 18.074-14.703 32.777-32.777 32.777zm0-50.554c-9.802 0-17.777 7.975-17.777 17.777s7.975 17.777 17.777 17.777 17.777-7.975 17.777-17.777-7.975-17.777-17.777-17.777z"/><path d="m313.02 377.757c-18.074 0-32.777-14.704-32.777-32.777 0-18.074 14.704-32.777 32.777-32.777s32.777 14.704 32.777 32.777c0 18.074-14.704 32.777-32.777 32.777zm0-50.554c-9.802 0-17.777 7.975-17.777 17.777s7.975 17.777 17.777 17.777 17.777-7.975 17.777-17.777-7.975-17.777-17.777-17.777z"/><path d="m286.159 269.914c-1.316 0-2.665-.037-4.047-.113-8.322-.458-18.296-1.5-29.184-5.749-3.859-1.506-5.766-5.854-4.26-9.713 1.506-3.858 5.854-5.767 9.713-4.26 8.895 3.471 17.059 4.332 24.556 4.745 15.27.84 24.928-4.463 30.336-9.061.485-.448.519-1.149-.052-1.669l-16.494-13.6c-.473-.391-1.174-.322-1.562.15l-5.361 6.497c-1.122 1.359-2.686 2.28-4.419 2.601-2.097.389-21.175 3.126-44.439-20.138s-20.526-42.34-20.138-44.439c.321-1.733 1.242-3.297 2.601-4.419l6.497-5.361c.472-.389.539-1.09.15-1.562l-13.6-16.494c-.521-.574-1.212-.529-1.669-.053-4.598 5.409-9.902 15.063-9.061 30.337.841 15.27 3.415 31.93 24.283 52.923 1.827 1.816 3.671 3.54 5.486 5.13 3.116 2.729 3.43 7.468.701 10.583-2.729 3.116-7.468 3.429-10.583.701-2.201-1.933-4.503-4.081-6.651-6.254-23.048-23.378-27.191-43.732-28.212-62.258-1.113-20.215 6.242-33.387 12.609-40.877 3.053-3.592 7.501-5.645 12.221-5.645.04 0 .081.001.121.001 4.789.036 9.283 2.175 12.329 5.869l13.6 16.494c5.649 6.851 4.673 17.023-2.175 22.675l-3.901 3.219c.292 4.628 2.578 15.401 16 28.824 13.421 13.421 24.195 15.708 28.824 16l3.219-3.9c5.652-6.85 15.824-7.826 22.675-2.176l16.494 13.6c3.694 3.046 5.833 7.54 5.869 12.329.036 4.765-2.021 9.263-5.644 12.342-6.98 5.931-18.89 12.721-36.832 12.721z"/></g></g></g></svg>